<svg viewBox="0 0 400 300" xmlns="http://www.w3.org/2000/svg">
  <!-- KICC Building outline -->
  <rect x="50" y="80" width="300" height="180" fill="#2c5aa0" stroke="#1e3a7a" stroke-width="2"/>
  <rect x="70" y="100" width="260" height="20" fill="#ff6b35"/>
  
  <!-- Stage lights -->
  <circle cx="100" cy="140" r="8" fill="#ffeb3b"/>
  <circle cx="150" cy="140" r="8" fill="#ffeb3b"/>
  <circle cx="200" cy="140" r="8" fill="#ffeb3b"/>
  <circle cx="250" cy="140" r="8" fill="#ffeb3b"/>
  <circle cx="300" cy="140" r="8" fill="#ffeb3b"/>
  
  <!-- Audience silhouettes -->
  <g fill="#1a1a1a" opacity="0.7">
    <circle cx="80" cy="200" r="4"/>
    <circle cx="90" cy="200" r="4"/>
    <circle cx="100" cy="200" r="4"/>
    <circle cx="110" cy="200" r="4"/>
    <circle cx="120" cy="200" r="4"/>
    <circle cx="130" cy="200" r="4"/>
    <circle cx="140" cy="200" r="4"/>
    <circle cx="150" cy="200" r="4"/>
    <circle cx="160" cy="200" r="4"/>
    <circle cx="170" cy="200" r="4"/>
    <circle cx="180" cy="200" r="4"/>
    <circle cx="190" cy="200" r="4"/>
    <circle cx="200" cy="200" r="4"/>
    <circle cx="210" cy="200" r="4"/>
    <circle cx="220" cy="200" r="4"/>
    <circle cx="230" cy="200" r="4"/>
    <circle cx="240" cy="200" r="4"/>
    <circle cx="250" cy="200" r="4"/>
    <circle cx="260" cy="200" r="4"/>
    <circle cx="270" cy="200" r="4"/>
    <circle cx="280" cy="200" r="4"/>
    <circle cx="290" cy="200" r="4"/>
    <circle cx="300" cy="200" r="4"/>
    <circle cx="310" cy="200" r="4"/>
    <circle cx="320" cy="200" r="4"/>
  </g>
  
  <!-- Sound equipment -->
  <rect x="180" y="160" width="40" height="25" fill="#333" stroke="#555" stroke-width="1"/>
  <rect x="185" y="165" width="10" height="15" fill="#ff6b35"/>
  <rect x="200" y="165" width="10" height="15" fill="#ff6b35"/>
  
  <!-- Text -->
  <text x="200" y="40" text-anchor="middle" fill="#fff" font-family="Arial, sans-serif" font-size="16" font-weight="bold">KICC Concert</text>
  <text x="200" y="60" text-anchor="middle" fill="#ff6b35" font-family="Arial, sans-serif" font-size="12">Kenyatta International Conference Centre</text>
</svg>